<svg width="45" height="45" viewBox="0 0 45 45" fill="none" xmlns="http://www.w3.org/2000/svg">
<path opacity="0.4" d="M22.5 41.25C32.8553 41.25 41.25 32.8553 41.25 22.5C41.25 12.1447 32.8553 3.75 22.5 3.75C12.1447 3.75 3.75 12.1447 3.75 22.5C3.75 32.8553 12.1447 41.25 22.5 41.25Z" fill="#009EE2"/>
<path d="M24.4883 22.4998L28.8008 18.1873C29.3445 17.6436 29.3445 16.7436 28.8008 16.1998C28.257 15.6561 27.357 15.6561 26.8133 16.1998L22.5008 20.5123L18.1883 16.1998C17.6445 15.6561 16.7445 15.6561 16.2008 16.1998C15.657 16.7436 15.657 17.6436 16.2008 18.1873L20.5133 22.4998L16.2008 26.8123C15.657 27.3561 15.657 28.2561 16.2008 28.7998C16.482 29.0811 16.8383 29.2123 17.1945 29.2123C17.5508 29.2123 17.907 29.0811 18.1883 28.7998L22.5008 24.4873L26.8133 28.7998C27.0945 29.0811 27.4508 29.2123 27.807 29.2123C28.1633 29.2123 28.5195 29.0811 28.8008 28.7998C29.3445 28.2561 29.3445 27.3561 28.8008 26.8123L24.4883 22.4998Z" fill="#009EE2"/>
</svg>
