<svg width="99" height="99" viewBox="0 0 99 99" fill="none" xmlns="http://www.w3.org/2000/svg">
<circle cx="49.5" cy="49.5" r="49.5" fill="#CDF0FF"/>
<circle cx="49.5" cy="49.5" r="44.5" fill="#99D8F3"/>
<circle cx="50" cy="49" r="39" fill="#009EE2"/>
<path d="M60.9748 46.9477C60.0969 46.9477 59.4027 46.2331 59.4027 45.3756C59.4027 44.6202 58.6473 43.0481 57.3815 41.6802C56.1361 40.3531 54.7682 39.5773 53.6248 39.5773C52.7469 39.5773 52.0527 38.8627 52.0527 38.0052C52.0527 37.1477 52.7673 36.4331 53.6248 36.4331C55.6665 36.4331 57.8102 37.5356 59.6886 39.516C61.4444 41.3739 62.5673 43.681 62.5673 45.3552C62.5673 46.2331 61.8527 46.9477 60.9748 46.9477Z" fill="#F7F7F7"/>
<path d="M68.3443 46.9481C67.4664 46.9481 66.7723 46.2335 66.7723 45.376C66.7723 38.1281 60.8718 32.2481 53.6443 32.2481C52.7664 32.2481 52.0723 31.5335 52.0723 30.676C52.0723 29.8185 52.7664 29.0835 53.6239 29.0835C62.6073 29.0835 69.9164 36.3927 69.9164 45.376C69.9164 46.2335 69.2018 46.9481 68.3443 46.9481Z" fill="#F7F7F7"/>
<path opacity="0.4" d="M49.0719 54.0122L42.3957 60.6885C41.6607 60.0352 40.9461 59.3614 40.2519 58.6672C38.149 56.5439 36.2502 54.3185 34.5557 51.991C32.8815 49.6635 31.534 47.336 30.554 45.0289C29.574 42.7014 29.084 40.476 29.084 38.3527C29.084 36.9643 29.329 35.6372 29.819 34.4122C30.309 33.1668 31.0848 32.0235 32.1669 31.0027C33.4736 29.7164 34.9027 29.0835 36.4136 29.0835C36.9852 29.0835 37.5569 29.206 38.0673 29.451C38.5982 29.696 39.0677 30.0635 39.4352 30.5943L44.1719 37.2706C44.5394 37.781 44.8048 38.2506 44.9886 38.6997C45.1723 39.1285 45.2744 39.5572 45.2744 39.9452C45.2744 40.4352 45.1315 40.9252 44.8457 41.3947C44.5802 41.8643 44.1923 42.3543 43.7023 42.8443L42.1506 44.4572C41.9261 44.6818 41.824 44.9472 41.824 45.2739C41.824 45.4372 41.8444 45.5802 41.8852 45.7435C41.9465 45.9068 42.0077 46.0293 42.0486 46.1518C42.4161 46.8256 43.049 47.7035 43.9473 48.7652C44.8661 49.8268 45.8461 50.9089 46.9077 51.991C47.6427 52.7056 48.3573 53.3997 49.0719 54.0122Z" fill="#F7F7F7"/>
<path d="M69.855 62.4238C69.855 62.9955 69.7529 63.5875 69.5488 64.1592C69.4875 64.3225 69.4263 64.4859 69.3446 64.6492C68.9975 65.3842 68.5484 66.0784 67.9563 66.7317C66.9559 67.8342 65.8534 68.6305 64.6079 69.1409C64.5875 69.1409 64.5671 69.1613 64.5467 69.1613C63.3421 69.6513 62.0354 69.9167 60.6267 69.9167C58.5442 69.9167 56.3188 69.4267 53.9709 68.4263C51.6229 67.4259 49.275 66.0784 46.9475 64.3838C46.1513 63.7917 45.355 63.1996 44.5996 62.5667L51.2759 55.8905C51.8475 56.3192 52.3579 56.6459 52.7867 56.8705C52.8888 56.9113 53.0113 56.9725 53.1542 57.0338C53.3175 57.095 53.4809 57.1155 53.6646 57.1155C54.0117 57.1155 54.2771 56.993 54.5017 56.7684L56.0534 55.2371C56.5638 54.7267 57.0538 54.3388 57.5234 54.0938C57.9929 53.808 58.4625 53.665 58.9729 53.665C59.3609 53.665 59.7692 53.7467 60.2184 53.9305C60.6675 54.1142 61.1371 54.3796 61.6475 54.7267L68.4054 59.5246C68.9363 59.8921 69.3038 60.3209 69.5284 60.8313C69.7325 61.3417 69.855 61.8521 69.855 62.4238Z" fill="#F7F7F7"/>
</svg>
